<svg xmlns="http://www.w3.org/2000/svg" width="128" height="128">
  <style>
    .snowflake {
      fill: aqua;
    }
  </style>

  <path
    class="snowflake"
    d="M101.6,84.3a2.7,2.7,0,0,1-.3,1.2,2.5,2.5,0,0,1-3.4.9l-10.5-6,2.3,8.7a2.4,2.4,0,0,1-1.7,3,2.5,2.5,0,0,1-3.1-1.8l-3.2-12-.4-1.4L66.5,68.3V85.4l1,1,8.9,8.9a2.3,2.3,0,0,1,.7,1.7,2.4,2.4,0,0,1-.7,1.8,2.5,2.5,0,0,1-3.6,0l-6.3-6.3v12a2.7,2.7,0,0,1-.7,1.8,2.4,2.4,0,0,1-1.8.7,2.5,2.5,0,0,1-2.5-2.5v-12l-6.3,6.3a2.5,2.5,0,0,1-3.6,0,2.6,2.6,0,0,1,0-3.5l8.9-8.9,1-1V68.3L46.7,76.9l-.4,1.4-3.2,12a2.4,2.4,0,0,1-2.4,1.9H40a2.4,2.4,0,0,1-1.7-3l2.3-8.7-10.5,6a1.7,1.7,0,0,1-1.2.4,2.6,2.6,0,0,1-2.2-1.3,2.5,2.5,0,0,1,.9-3.4l10.5-6-8.7-2.3a2.5,2.5,0,0,1-1.7-3.1,2.4,2.4,0,0,1,3-1.8l12.1,3.3,1.4.3L59,64,44.2,55.5l-1.4.3L30.7,59.1h-.6a2.6,2.6,0,0,1-2.4-1.9,2.4,2.4,0,0,1,1.7-3l8.7-2.4-10.5-6a2.5,2.5,0,0,1-1.2-2.2,2.7,2.7,0,0,1,.3-1.2,2.5,2.5,0,0,1,3.4-.9l10.5,6-2.3-8.7a2.4,2.4,0,0,1,1.7-3,2.4,2.4,0,0,1,3.1,1.8l3.2,12,.4,1.4,14.8,8.6V42.6l-9.9-9.9a2.3,2.3,0,0,1-.7-1.7,2.4,2.4,0,0,1,.7-1.8,2.5,2.5,0,0,1,3.6,0l6.3,6.3v-12a2.7,2.7,0,0,1,.7-1.8A2.4,2.4,0,0,1,64,21a2.5,2.5,0,0,1,2.5,2.5v12l6.3-6.3a2.5,2.5,0,0,1,3.6,0,2.6,2.6,0,0,1,0,3.5l-9.9,9.9V59.7l14.8-8.6.4-1.4,3.2-12a2.4,2.4,0,0,1,2.4-1.9H88a2.4,2.4,0,0,1,1.7,3l-2.3,8.7,10.5-6a1.9,1.9,0,0,1,1.2-.4,2.6,2.6,0,0,1,2.2,1.3,2.5,2.5,0,0,1-.9,3.4l-10.5,6,8.7,2.4a2.4,2.4,0,0,1,1.7,3,2.4,2.4,0,0,1-3,1.8L85.2,55.8l-1.4-.3L69,64l14.8,8.5,1.4-.3,12.1-3.3h.6a2.6,2.6,0,0,1,2.4,1.9,2.5,2.5,0,0,1-1.7,3.1l-8.7,2.3,10.5,6A2.5,2.5,0,0,1,101.6,84.3Z"
    transform="translate(0 0)"
  />

  <animateTransform
    attributeName="transform"
    type="rotate"
    from="0 0 0"
    to="360 0 0"
    dur="10s"
    repeatCount="indefinite"
  />
</svg>
